#N canvas 400 200 680 360 12;
#X text 15 10 05-giromin-ema — a-base-giromin-ema;
#X text 15 35 Adicione o giromin.suavizar antes do giromin.map.;
#X text 23 90 04-giromin-map — c-desafio-giromin-map-dois-eixos;
#X text 29 156 04-giromin-map — b-aula-giromin-map-freq;
#X obj 70 647 noise~;
#X obj 70 772 output~;
#X obj 70 732 *~ 0.8;
#X obj 70 692 else/lowpass~ 100 1;
#X obj 70 515 giromin.map -10 10 100 4000, f 31;
#X text 29 187 Aprender a usar o giromin.map;
#X obj 70 256 else/osc.receive 9999;
#X obj 70 331 unpack f f f;
#X obj 543 331 unpack f f f;
#X floatatom 70 366 8 -100 100 0 accel-x - - 0;
#X floatatom 230 366 8 -100 100 0 accel-y - - 0;
#X floatatom 390 366 8 -100 100 0 accel-z - - 0;
#X floatatom 543 366 8 -500 500 0 gyro-x - - 0;
#X floatatom 703 366 8 -500 500 0 gyro-y - - 0;
#X floatatom 823 366 8 -500 500 0 gyro-z - - 0;
#X obj 70 291 else/osc.route /giromin/a /giromin/g;
#X text 321 255 Mudar valor da porta de acordo com o código do Arduino;
#X text 321 290 Mudar endereço OSC para o que estiver aparecendo no console;
#X obj 118 418 else/range;
#X floatatom 118 469 8 -100 100 2 min - - 0;
#X floatatom 167 469 8 -100 100 2 max - - 0;
#X floatatom 70 555 5 0 0 0 - - - 12;
#X msg 237 401 reset;
#X obj 224 605 else/knob 50 0.01 40 0 0.7 empty empty #dfdfdf #7c7c7c black 1 0 0 0 1 320 0 0 0.01 empty empty 1 14 15 -15 0 1 0 0;
#X text 50 866 DESAFIO: Experimentar com outros dados do sensor IMU (x \, y e z do acelerômetro e do giroscópio) \; Experimentar também com um parâmetro do giromin controlado a ressonância;
#X obj 593 444 else/range;
#X floatatom 593 495 8 -100 100 2 min - - 0;
#X floatatom 642 495 8 -100 100 2 max - - 0;
#X floatatom 545 581 5 0 0 0 - - - 12;
#X msg 712 427 reset;
#X obj 545 541 giromin.map -10 10 0.001 40, f 31;
#X obj 475 64 giromin.suavizar 1 90;
#X connect 4 0 7 0;
#X connect 6 0 5 0;
#X connect 6 0 5 1;
#X connect 7 0 6 0;
#X connect 8 0 25 0;
#X connect 10 0 19 0;
#X connect 11 0 13 0;
#X connect 11 1 14 0;
#X connect 11 2 15 0;
#X connect 12 0 16 0;
#X connect 12 1 17 0;
#X connect 12 2 18 0;
#X connect 15 0 8 0;
#X connect 15 0 22 0;
#X connect 16 0 29 0;
#X connect 16 0 34 0;
#X connect 19 0 11 0;
#X connect 19 1 12 0;
#X connect 22 0 23 0;
#X connect 22 1 24 0;
#X connect 23 0 8 1;
#X connect 24 0 8 2;
#X connect 25 0 7 1;
#X connect 26 0 22 0;
#X connect 27 0 7 2;
#X connect 29 0 30 0;
#X connect 29 1 31 0;
#X connect 30 0 34 1;
#X connect 31 0 34 2;
#X connect 32 0 27 0;
#X connect 33 0 29 0;
#X connect 34 0 32 0;
