#N canvas 400 200 720 400 12;
#X text 15 10 05-giromin-ema — b-aula-giromin-ema-rise-fall;
#X text 15 39 RISE e FALL controlam a suavizacao de subida e descida.;
#X obj 787 454 hsl 128 15 0.1 100 0 1 empty empty rise 0 -8 0 10 #ffffff #000000 #000000 5489 1;
#X obj 787 492 hsl 128 15 0.1 100 0 1 empty empty fall 0 -8 0 10 #ffffff #000000 #000000 12700 1;
#X obj 70 484 noise~;
#X obj 70 609 output~;
#X obj 70 569 *~ 0.8;
#X obj 70 529 else/lowpass~ 100 1;
#X obj 70 352 giromin.map -10 10 100 4000, f 31;
#X obj 70 93 else/osc.receive 9999;
#X obj 70 168 unpack f f f;
#X obj 543 168 unpack f f f;
#X floatatom 70 203 8 -100 100 0 accel-x - - 0;
#X floatatom 230 203 8 -100 100 0 accel-y - - 0;
#X floatatom 390 203 8 -100 100 0 accel-z - - 0;
#X floatatom 543 203 8 -500 500 0 gyro-x - - 0;
#X floatatom 703 203 8 -500 500 0 gyro-y - - 0;
#X floatatom 823 203 8 -500 500 0 gyro-z - - 0;
#X obj 70 128 else/osc.route /giromin/a /giromin/g;
#X text 321 92 Mudar valor da porta de acordo com o código do Arduino;
#X text 321 127 Mudar endereço OSC para o que estiver aparecendo no console;
#X obj 118 255 else/range;
#X floatatom 118 306 8 -100 100 2 min - - 0;
#X floatatom 167 306 8 -100 100 2 max - - 0;
#X floatatom 70 392 5 0 0 0 - - - 12;
#X msg 237 238 reset;
#X obj 224 442 else/knob 50 0.01 40 0 0.7 empty empty #dfdfdf #7c7c7c black 1 0 0 0 1 320 0 0 0.01 empty empty 1 14 15 -15 0 1 0 0;
#X obj 593 281 else/range;
#X floatatom 593 332 8 -100 100 2 min - - 0;
#X floatatom 642 332 8 -100 100 2 max - - 0;
#X floatatom 545 425 5 0 0 0 - - - 12;
#X msg 712 264 reset;
#X obj 545 378 giromin.map -10 10 0.001 40, f 31;
#X floatatom 545 518 5 0 0 0 - - - 12;
#X text 52 723 EXPERIMENTAÇÃO: Varie os valores do rise e fall \;;
#X obj 150 817 plate.rev.m~;
#A saved 50 0.5 0.25 0.75 0.5;
#A saved;
#A saved;
#A saved;
#A saved;
#A saved;
#X obj 52 817 drive.m~;
#A saved -1 0;
#A saved;
#A saved;
#X text 52 746 DESAFIO: Usar outros efeitos sonoros e controlar eles pelo giromin também. Seguem abaixo alguns exemplos de módulos da biblioteca MERDA de Alexandre Porres:;
#X obj 318 817 crusher.m~;
#A saved 0 0 0 0;
#A saved;
#A saved;
#A saved;
#A saved;
#X obj 477 817 delay.m~;
#A saved 100 0 100 0 0.5;
#A saved;
#A saved;
#A saved;
#A saved;
#A saved;
#X obj 545 473 giromin.suavizar 1 90;
#X connect 2 0 40 1;
#X connect 3 0 40 2;
#X connect 4 0 7 0;
#X connect 6 0 5 0;
#X connect 6 0 5 1;
#X connect 7 0 6 0;
#X connect 8 0 24 0;
#X connect 9 0 18 0;
#X connect 10 0 12 0;
#X connect 10 1 13 0;
#X connect 10 2 14 0;
#X connect 11 0 15 0;
#X connect 11 1 16 0;
#X connect 11 2 17 0;
#X connect 14 0 8 0;
#X connect 14 0 21 0;
#X connect 15 0 27 0;
#X connect 15 0 32 0;
#X connect 18 0 10 0;
#X connect 18 1 11 0;
#X connect 21 0 22 0;
#X connect 21 1 23 0;
#X connect 22 0 8 1;
#X connect 23 0 8 2;
#X connect 25 0 21 0;
#X connect 26 0 7 2;
#X connect 27 0 28 0;
#X connect 27 1 29 0;
#X connect 28 0 32 1;
#X connect 29 0 32 2;
#X connect 30 0 40 0;
#X connect 31 0 27 0;
#X connect 32 0 30 0;
#X connect 33 0 7 1;
#X connect 40 0 33 0;
