#N canvas 400 200 760 420 12;
#X text 15 10 05-giromin-ema — c-desafio-giromin-ema-completo;
#X text 15 35 accel x → ema → freq filtro   accel z → ema → volume.;
#X obj 15 90 else/osc.receive 9999;
#X obj 15 125 else/osc.route /giromin/accel;
#X obj 15 160 unpack f f f;
#X obj 15 215 giromin.suavizar 1 20;
#X obj 15 255 giromin.map -10 10 100 4000;
#X obj 370 215 giromin.suavizar 1 20;
#X obj 370 255 giromin.map -10 10 0 0.5;
#X obj 500 100 noise~;
#X obj 500 145 else/lop2~;
#X obj 500 185 *~;
#X obj 500 225 output~;
#X connect 2 0 3 0;
#X connect 3 0 4 0;
#X connect 4 0 5 0;
#X connect 4 2 7 0;
#X connect 5 0 6 0;
#X connect 6 0 10 1;
#X connect 7 0 8 0;
#X connect 8 0 11 1;
#X connect 9 0 10 0;
#X connect 10 0 11 0;
#X connect 11 0 12 0;
#X connect 11 0 12 1;
