#N canvas 400 200 620 310 12;
#X text 15 10 03-recebe-osc — b-aula-recebe-osc-numeros;
#X text 15 35 Mostra os valores de aceleracao em caixas de numero.;
#X obj 15 90 else/osc.receive 9999;
#X obj 15 204 unpack f f f;
#X floatatom 15 239 8 -100 100 0 x - - 0;
#X floatatom 175 239 8 -100 100 0 y - - 0;
#X floatatom 335 239 8 -100 100 0 z - - 0;
#X text 15 305 DESAFIO: trocar o osc.route para receber outros dados dos sensores;
#X obj 15 169 else/osc.route /giromin/a;
#X obj 20 388 else/range;
#X text 17 339 Usar o else/range pra entender o valor máximo e mínimo dos dados de cada sensor;
#X text 214 89 Mudar valor da porta de acordo com o código do Arduino;
#X text 208 168 Mudar endereço OSC para o que estiver aparecendo no console;
#X obj 38 132 print giromin-osc;
#X connect 2 0 8 0;
#X connect 2 0 13 0;
#X connect 3 0 4 0;
#X connect 3 1 5 0;
#X connect 3 2 6 0;
#X connect 8 0 3 0;
