#N canvas 400 200 680 340 12;
#X text 15 10 03-recebe-osc — c-desafio-recebe-osc-todos-eixos;
#X text 15 35 Aceleracao e giroscopio separados.;
#X obj 15 90 else/osc.receive 9999;
#X obj 15 165 unpack f f f;
#X obj 488 165 unpack f f f;
#X floatatom 15 200 8 -100 100 0 accel-x - - 0;
#X floatatom 175 200 8 -100 100 0 accel-y - - 0;
#X floatatom 335 200 8 -100 100 0 accel-z - - 0;
#X floatatom 488 200 8 -500 500 0 gyro-x - - 0;
#X floatatom 648 200 8 -500 500 0 gyro-y - - 0;
#X floatatom 768 200 8 -500 500 0 gyro-z - - 0;
#X text 15 363 accel = aceleracao linear (m/s2) gyro = velocidade angular (deg/s);
#X obj 15 125 else/osc.route /giromin/a /giromin/g;
#X text 266 657 DESAFIO: trocar o osc.route para receber outros dados dos sensores;
#X obj 271 740 else/range;
#X text 268 691 Usar o else/range pra entender o valor máximo e mínimo dos dados de cada sensor;
#X text 266 89 Mudar valor da porta de acordo com o código do Arduino;
#X text 266 124 Mudar endereço OSC para o que estiver aparecendo no console;
#X obj 15 245 else/range;
#X floatatom 15 309 8 -100 100 2 min - - 0;
#X floatatom 64 309 8 -100 100 2 max - - 0;
#X connect 2 0 12 0;
#X connect 3 0 5 0;
#X connect 3 1 6 0;
#X connect 3 2 7 0;
#X connect 4 0 8 0;
#X connect 4 1 9 0;
#X connect 4 2 10 0;
#X connect 5 0 18 0;
#X connect 12 0 3 0;
#X connect 12 1 4 0;
#X connect 18 0 19 0;
#X connect 18 1 20 0;
