#N canvas 400 200 620 340 12;
#X text 15 10 04-giromin-map — a-base-giromin-map;
#X obj 56 475 noise~;
#X obj 56 600 output~;
#X obj 56 560 *~ 0.8;
#X obj 56 520 else/lowpass~ 100 1;
#X obj 56 391 giromin.map -10 10 100 4000;
#X text 15 35 Aprender a usar o giromin.map;
#X obj 56 84 else/osc.receive 9999;
#X obj 56 159 unpack f f f;
#X obj 529 159 unpack f f f;
#X floatatom 56 194 8 -100 100 0 accel-x - - 0;
#X floatatom 216 194 8 -100 100 0 accel-y - - 0;
#X floatatom 376 194 8 -100 100 0 accel-z - - 0;
#X floatatom 529 194 8 -500 500 0 gyro-x - - 0;
#X floatatom 689 194 8 -500 500 0 gyro-y - - 0;
#X floatatom 809 194 8 -500 500 0 gyro-z - - 0;
#X obj 56 119 else/osc.route /giromin/a /giromin/g;
#X text 307 83 Mudar valor da porta de acordo com o código do Arduino;
#X text 307 118 Mudar endereço OSC para o que estiver aparecendo no console;
#X obj 56 239 else/range;
#X floatatom 56 290 8 -100 100 2 min - - 0;
#X floatatom 105 290 8 -100 100 2 max - - 0;
#X connect 1 0 4 0;
#X connect 3 0 2 0;
#X connect 3 0 2 1;
#X connect 4 0 3 0;
#X connect 7 0 16 0;
#X connect 8 0 10 0;
#X connect 8 1 11 0;
#X connect 8 2 12 0;
#X connect 9 0 13 0;
#X connect 9 1 14 0;
#X connect 9 2 15 0;
#X connect 10 0 19 0;
#X connect 16 0 8 0;
#X connect 16 1 9 0;
#X connect 19 0 20 0;
#X connect 19 1 21 0;
